HIERARCHY
ROOT Hips
{
	OFFSET -0.066283 88.859909 3.106752
	CHANNELS 6 Xposition Yposition Zposition Zrotation Yrotation Xrotation 
	JOINT Spine
	{
		OFFSET -0.000000 8.814246 -2.080107
		CHANNELS 3 Zrotation Yrotation Xrotation
		JOINT Spine1
		{
			OFFSET -0.000000 8.844141 0.000000
			CHANNELS 3 Zrotation Yrotation Xrotation
			JOINT Spine2
			{
				OFFSET 0.000000 11.682268 0.000000
				CHANNELS 3 Zrotation Yrotation Xrotation
				JOINT Spine3
				{
					OFFSET -0.000000 11.746700 0.000000
					CHANNELS 3 Zrotation Yrotation Xrotation
					JOINT Neck
					{
						OFFSET -0.000000 17.658264 0.000000
						CHANNELS 3 Zrotation Yrotation Xrotation
						JOINT Neck1
						{
							OFFSET 0.000000 5.101515 -0.000000
							CHANNELS 3 Zrotation Yrotation Xrotation
							JOINT Head
							{
								OFFSET -0.000000 5.101515 -0.000000
								CHANNELS 3 Zrotation Yrotation Xrotation
								JOINT HeadEnd
								{
									OFFSET 0.000000 11.655085 -0.000000
									CHANNELS 3 Zrotation Yrotation Xrotation
									End Site
									{
										OFFSET 0.000000 0.000000 0.000000
									}
								}
							}
						}
					}
					JOINT RightShoulder
					{
						OFFSET -2.625389 11.175210 -0.000000
						CHANNELS 3 Zrotation Yrotation Xrotation
						JOINT RightArm
						{
							OFFSET 0.000000 10.434715 -0.000000
							CHANNELS 3 Zrotation Yrotation Xrotation
							JOINT RightForeArm
							{
								OFFSET -0.000000 29.628420 0.000000
								CHANNELS 3 Zrotation Yrotation Xrotation
								JOINT RightHand
								{
									OFFSET -0.000000 22.857611 0.000000
									CHANNELS 3 Zrotation Yrotation Xrotation
									JOINT RightHandThumb1
									{
										OFFSET -2.867323 3.959563 2.944291
										CHANNELS 3 Zrotation Yrotation Xrotation
										JOINT RightHandThumb2
										{
											OFFSET -0.000000 3.350399 0.000000
											CHANNELS 3 Zrotation Yrotation Xrotation
											JOINT RightHandThumb3
											{
												OFFSET -0.000000 3.756509 -0.000000
												CHANNELS 3 Zrotation Yrotation Xrotation
												JOINT RightHandThumb4
												{
													OFFSET -0.000000 3.147345 0.000000
													CHANNELS 3 Zrotation Yrotation Xrotation
													End Site
													{
														OFFSET 0.000000 0.000000 0.000000
													}
												}
											}
										}
									}
									JOINT RightHandIndex1
									{
										OFFSET -0.086752 10.030893 2.345280
										CHANNELS 3 Zrotation Yrotation Xrotation
										JOINT RightHandIndex2
										{
											OFFSET 0.000000 4.061090 -0.000000
											CHANNELS 3 Zrotation Yrotation Xrotation
											JOINT RightHandIndex3
											{
												OFFSET 0.000000 3.248873 -0.000000
												CHANNELS 3 Zrotation Yrotation Xrotation
												JOINT RightHandIndex4
												{
													OFFSET 0.000000 2.639709 0.000000
													CHANNELS 3 Zrotation Yrotation Xrotation
													End Site
													{
														OFFSET 0.000000 0.000000 0.000000
													}
												}
											}
										}
									}
									JOINT RightHandMiddle1
									{
										OFFSET 0.104102 9.502952 0.006768
										CHANNELS 3 Zrotation Yrotation Xrotation
										JOINT RightHandMiddle2
										{
											OFFSET 0.000000 4.568727 0.000000
											CHANNELS 3 Zrotation Yrotation Xrotation
											JOINT RightHandMiddle3
											{
												OFFSET 0.000000 3.654981 -0.000000
												CHANNELS 3 Zrotation Yrotation Xrotation
												JOINT RightHandMiddle4
												{
													OFFSET -0.000000 2.741236 0.000000
													CHANNELS 3 Zrotation Yrotation Xrotation
													End Site
													{
														OFFSET 0.000000 0.000000 0.000000
													}
												}
											}
										}
									}
									JOINT RightHandRing1
									{
										OFFSET 0.086752 8.921708 -2.267442
										CHANNELS 3 Zrotation Yrotation Xrotation
										JOINT RightHandRing2
										{
											OFFSET 0.000000 4.061090 -0.000000
											CHANNELS 3 Zrotation Yrotation Xrotation
											JOINT RightHandRing3
											{
												OFFSET -0.000000 3.654981 0.000000
												CHANNELS 3 Zrotation Yrotation Xrotation
												JOINT RightHandRing4
												{
													OFFSET -0.000000 2.741236 0.000000
													CHANNELS 3 Zrotation Yrotation Xrotation
													End Site
													{
														OFFSET 0.000000 0.000000 0.000000
													}
												}
											}
										}
									}
									JOINT RightHandPinky1
									{
										OFFSET -0.173504 7.976997 -4.467199
										CHANNELS 3 Zrotation Yrotation Xrotation
										JOINT RightHandPinky2
										{
											OFFSET -0.000000 3.350399 0.000000
											CHANNELS 3 Zrotation Yrotation Xrotation
											JOINT RightHandPinky3
											{
												OFFSET 0.000000 2.842763 0.000000
												CHANNELS 3 Zrotation Yrotation Xrotation
												JOINT RightHandPinky4
												{
													OFFSET 0.000000 2.639709 0.000000
													CHANNELS 3 Zrotation Yrotation Xrotation
													End Site
													{
														OFFSET 0.000000 0.000000 0.000000
													}
												}
											}
										}
									}
									JOINT RightForeArmEnd
									{
										OFFSET 0.000000 0.000000 0.000000
										CHANNELS 3 Zrotation Yrotation Xrotation
										End Site
										{
											OFFSET 0.000000 0.000000 0.000000
										}
									}
								}
								JOINT RightArmEnd
								{
									OFFSET 0.000000 0.000000 0.000000
									CHANNELS 3 Zrotation Yrotation Xrotation
									End Site
									{
										OFFSET 0.000000 0.000000 0.000000
									}
								}
							}
						}
					}
					JOINT LeftShoulder
					{
						OFFSET 2.625389 11.175210 0.000000
						CHANNELS 3 Zrotation Yrotation Xrotation
						JOINT LeftArm
						{
							OFFSET -0.000000 10.813635 -0.000000
							CHANNELS 3 Zrotation Yrotation Xrotation
							JOINT LeftForeArm
							{
								OFFSET -0.000000 28.724781 -0.000000
								CHANNELS 3 Zrotation Yrotation Xrotation
								JOINT LeftHand
								{
									OFFSET 0.644384 25.716167 -0.328871
									CHANNELS 3 Zrotation Yrotation Xrotation
									JOINT LeftHandThumb1
									{
										OFFSET 2.867323 3.959563 2.944291
										CHANNELS 3 Zrotation Yrotation Xrotation
										JOINT LeftHandThumb2
										{
											OFFSET 0.000000 3.350399 0.000000
											CHANNELS 3 Zrotation Yrotation Xrotation
											JOINT LeftHandThumb3
											{
												OFFSET -0.000000 3.756509 -0.000000
												CHANNELS 3 Zrotation Yrotation Xrotation
												JOINT LeftHandThumb4
												{
													OFFSET 0.000000 3.100000 0.000000
													CHANNELS 3 Zrotation Yrotation Xrotation
													End Site
													{
														OFFSET 0.000000 0.000000 0.000000
													}
												}
											}
										}
									}
									JOINT LeftHandIndex1
									{
										OFFSET 0.086752 10.030893 2.345280
										CHANNELS 3 Zrotation Yrotation Xrotation
										JOINT LeftHandIndex2
										{
											OFFSET 0.000000 4.061090 0.000000
											CHANNELS 3 Zrotation Yrotation Xrotation
											JOINT LeftHandIndex3
											{
												OFFSET -0.000000 3.248873 -0.000000
												CHANNELS 3 Zrotation Yrotation Xrotation
												JOINT LeftHandIndex4
												{
													OFFSET 0.000000 2.639709 0.000000
													CHANNELS 3 Zrotation Yrotation Xrotation
													End Site
													{
														OFFSET 0.000000 0.000000 0.000000
													}
												}
											}
										}
									}
									JOINT LeftHandMiddle1
									{
										OFFSET -0.104102 9.502952 0.006768
										CHANNELS 3 Zrotation Yrotation Xrotation
										JOINT LeftHandMiddle2
										{
											OFFSET -0.000000 4.568727 -0.000000
											CHANNELS 3 Zrotation Yrotation Xrotation
											JOINT LeftHandMiddle3
											{
												OFFSET -0.000000 3.654981 -0.000000
												CHANNELS 3 Zrotation Yrotation Xrotation
												JOINT LeftHandMiddle4
												{
													OFFSET 0.000000 2.741236 0.000000
													CHANNELS 3 Zrotation Yrotation Xrotation
													End Site
													{
														OFFSET 0.000000 0.000000 0.000000
													}
												}
											}
										}
									}
									JOINT LeftHandRing1
									{
										OFFSET -0.086752 8.921708 -2.267442
										CHANNELS 3 Zrotation Yrotation Xrotation
										JOINT LeftHandRing2
										{
											OFFSET 0.000000 4.061090 0.000000
											CHANNELS 3 Zrotation Yrotation Xrotation
											JOINT LeftHandRing3
											{
												OFFSET 0.000000 3.654981 -0.000000
												CHANNELS 3 Zrotation Yrotation Xrotation
												JOINT LeftHandRing4
												{
													OFFSET -0.000000 2.741236 -0.000000
													CHANNELS 3 Zrotation Yrotation Xrotation
													End Site
													{
														OFFSET 0.000000 0.000000 0.000000
													}
												}
											}
										}
									}
									JOINT LeftHandPinky1
									{
										OFFSET 0.173504 7.976997 -4.467199
										CHANNELS 3 Zrotation Yrotation Xrotation
										JOINT LeftHandPinky2
										{
											OFFSET -0.000000 3.350399 -0.000000
											CHANNELS 3 Zrotation Yrotation Xrotation
											JOINT LeftHandPinky3
											{
												OFFSET 0.000000 2.842763 -0.000000
												CHANNELS 3 Zrotation Yrotation Xrotation
												JOINT LeftHandPinky4
												{
													OFFSET -0.000000 2.639709 -0.000000
													CHANNELS 3 Zrotation Yrotation Xrotation
													End Site
													{
														OFFSET 0.000000 0.000000 0.000000
													}
												}
											}
										}
									}
									JOINT LeftForeArmEnd
									{
										OFFSET 0.000000 0.000000 0.000000
										CHANNELS 3 Zrotation Yrotation Xrotation
										End Site
										{
											OFFSET 0.000000 0.000000 0.000000
										}
									}
								}
								JOINT LeftArmEnd
								{
									OFFSET 0.000000 0.000000 0.000000
									CHANNELS 3 Zrotation Yrotation Xrotation
									End Site
									{
										OFFSET 0.000000 0.000000 0.000000
									}
								}
							}
						}
					}
				}
			}
		}
	}
	JOINT RightUpLeg
	{
		OFFSET -11.289943 -0.000000 0.000000
		CHANNELS 3 Zrotation Yrotation Xrotation
		JOINT RightLeg
		{
			OFFSET 0.000000 -38.200325 -0.000000
			CHANNELS 3 Zrotation Yrotation Xrotation
			JOINT RightFoot
			{
				OFFSET -0.000000 -39.900856 0.000000
				CHANNELS 3 Zrotation Yrotation Xrotation
				JOINT RightToeBase
				{
					OFFSET 0.000000 0.000000 15.261641
					CHANNELS 3 Zrotation Yrotation Xrotation
					JOINT RightToeBaseEnd
					{
						OFFSET 0.000000 0.000000 7.370709
						CHANNELS 3 Zrotation Yrotation Xrotation
						End Site
						{
							OFFSET 0.000000 0.000000 0.000000
						}
					}
				}
				JOINT RightLegEnd
				{
					OFFSET 0.000000 0.000000 0.000000
					CHANNELS 3 Zrotation Yrotation Xrotation
					End Site
					{
						OFFSET 0.000000 0.000000 0.000000
					}
				}
			}
			JOINT RightUpLegEnd
			{
				OFFSET 0.000000 0.000000 0.000000
				CHANNELS 3 Zrotation Yrotation Xrotation
				End Site
				{
					OFFSET 0.000000 0.000000 0.000000
				}
			}
		}
	}
	JOINT LeftUpLeg
	{
		OFFSET 11.315661 0.000000 0.000000
		CHANNELS 3 Zrotation Yrotation Xrotation
		JOINT LeftLeg
		{
			OFFSET 0.000000 -38.200325 -0.000000
			CHANNELS 3 Zrotation Yrotation Xrotation
			JOINT LeftFoot
			{
				OFFSET 0.000000 -39.900856 -0.000000
				CHANNELS 3 Zrotation Yrotation Xrotation
				JOINT LeftToeBase
				{
					OFFSET 0.000000 -0.000000 15.261641
					CHANNELS 3 Zrotation Yrotation Xrotation
					JOINT LeftToeBaseEnd
					{
						OFFSET -0.000000 0.000000 7.539996
						CHANNELS 3 Zrotation Yrotation Xrotation
						End Site
						{
							OFFSET 0.000000 0.000000 0.000000
						}
					}
				}
				JOINT LeftLegEnd
				{
					OFFSET 0.000000 0.000000 0.000000
					CHANNELS 3 Zrotation Yrotation Xrotation
					End Site
					{
						OFFSET 0.000000 0.000000 0.000000
					}
				}
			}
			JOINT LeftUpLegEnd
			{
				OFFSET 0.000000 0.000000 0.000000
				CHANNELS 3 Zrotation Yrotation Xrotation
				End Site
				{
					OFFSET 0.000000 0.000000 0.000000
				}
			}
		}
	}
}
MOTION
Frames: 5
Frame Time: 0.016667
-0.066283 88.859909 3.106752 -0.554998 -0.063200 -6.496325 0.035903 -0.002268 5.888138 1.007702 -0.066753 0.859935 -0.482675 2.416700 3.828048 -0.160674 0.780135 1.924824 -2.324279 -0.847468 5.016633 -0.365139 -2.116586 -3.221972 0.720381 0.853138 -18.220909 0.000000 0.000000 0.000000 92.020271 -0.208433 5.546823 69.638977 -19.089216 -1.147147 0.059477 8.331356 28.544134 2.918324 25.791067 -8.931848 11.217805 -1.887472 39.615406 0.000000 0.000000 -27.315002 0.000000 0.000000 -18.968748 0.000000 0.000000 0.000000 13.213602 16.646936 -12.039722 11.238620 -0.665555 -3.398387 11.238004 0.315584 -3.203499 0.000000 0.000000 0.000000 14.610597 6.862490 -11.429158 11.135071 -0.860474 -1.356066 11.133999 0.111766 -1.162957 0.000000 0.000000 0.000000 19.862411 -8.846701 -10.677217 12.650033 1.760184 1.978157 12.644374 -0.177743 1.540332 0.000000 0.000000 0.000000 23.790291 -25.600758 -10.773308 12.395708 3.368127 5.825091 12.374576 -0.538114 4.967071 0.000000 0.000000 0.000000 0.000000 0.000000 0.000000 0.000000 0.000000 0.000000 -90.685371 0.125338 9.277699 -68.205345 33.746468 -2.114506 -0.906679 -12.804414 36.500160 -5.004631 -13.813062 -13.796777 -10.637670 1.840801 39.870987 0.000000 0.000000 -25.919998 0.000000 0.000000 -18.000004 0.000000 0.000000 0.000000 -15.727524 16.759449 -9.934354 -8.634541 -0.781970 2.617436 -8.634687 0.185794 2.467350 0.000000 0.000000 0.000000 -12.632174 6.870213 -11.103483 -7.858750 -0.942948 0.960031 -7.861093 -0.138773 0.818618 0.000000 0.000000 0.000000 -9.446996 -8.823497 -11.456291 -7.804728 1.917102 -1.226388 -7.800338 -0.064224 -0.954850 0.000000 0.000000 0.000000 -4.422287 -25.333719 -13.915033 -6.810095 3.806906 -3.213968 -6.795249 -0.160380 -2.740026 0.000000 0.000000 0.000000 0.000000 0.000000 0.000000 0.000000 0.000000 0.000000 1.904249 6.541767 7.475135 -0.037531 -0.408927 7.546108 -4.730400 1.738853 18.019159 -0.347465 0.340706 -20.620296 0.000000 0.000000 0.000000 0.000000 0.000000 0.000000 0.000000 0.000000 0.000000 1.163178 10.511868 11.895180 0.051614 0.626121 3.761402 1.290193 7.867616 18.489267 0.739732 -0.851381 -19.069050 0.000000 0.000000 0.000000 0.000000 0.000000 0.000000 0.000000 0.000000 0.000000 
-0.128069 88.666199 2.999495 -0.119901 0.092206 -7.866263 -1.188886 0.275180 6.862055 1.473843 -0.252095 2.069367 -0.825642 1.933161 3.255374 1.140841 0.273673 2.370039 -2.714866 0.020209 3.164001 -0.425444 -1.088465 -4.099621 0.074532 0.687646 -18.530714 0.000000 0.000000 0.000000 90.705437 -0.165691 6.155827 69.264526 -19.509024 0.729695 0.219129 9.276347 27.067816 4.720260 25.492489 -8.093906 10.872393 -1.847226 39.791084 -0.000010 0.000018 -26.543530 -0.000004 0.000034 -18.401285 0.000002 -0.000006 -0.000008 13.177904 16.484159 -9.806671 10.549754 -0.628204 -2.844950 10.595846 0.324002 -2.664087 -0.000023 0.000018 -0.000027 14.159842 6.825753 -10.359340 10.502228 -0.837353 -1.140487 10.528723 0.116177 -0.973648 0.000020 -0.000014 0.000008 19.102037 -8.783355 -10.520720 11.902506 1.746792 1.632784 11.828466 -0.163350 1.265344 -0.000031 -0.000066 0.000013 23.894018 -24.884081 -12.301734 11.927457 3.279894 4.860630 11.716806 -0.523580 4.152064 0.000531 -0.000003 0.000018 0.000000 0.000000 0.000000 0.000000 0.000000 0.000000 -91.208557 0.309694 8.599753 -68.122200 32.489307 -2.999325 -1.260272 -13.717649 36.361687 -4.901571 -12.583456 -14.377162 -10.406427 1.794824 39.986717 -0.000000 0.000014 -25.343363 0.000037 -0.000029 -17.613678 -0.000547 -0.000002 0.000222 -15.294714 16.607933 -10.245675 -8.728148 -0.677970 2.710567 -8.994639 0.269183 2.552863 -0.000001 0.000803 0.000001 -12.432510 6.866558 -10.936662 -8.321506 -0.866516 1.047320 -8.053514 0.091849 0.897839 -0.000027 -0.000040 -0.000052 -8.835428 -8.749193 -10.813493 -7.797963 1.801339 -1.462862 -7.628024 -0.112476 -1.115749 -0.000119 0.000007 0.000001 -3.666372 -24.842030 -13.197832 -6.388035 3.459159 -3.889519 -6.457091 -0.335106 -3.362407 -0.000085 -0.000013 -0.000030 0.000000 0.000000 0.000000 0.000000 0.000000 0.000000 2.079557 5.245361 7.316094 -0.061351 -0.378677 8.626098 -5.056682 0.537975 17.914452 -0.342534 0.294286 -21.561533 0.000000 0.000000 0.000000 0.000000 0.000000 0.000000 0.000000 0.000000 0.000000 2.019843 9.774617 12.542885 0.045795 0.700158 4.792834 0.659011 8.462118 17.735104 0.740319 -0.753527 -19.506475 0.000000 0.000000 0.000000 0.000000 0.000000 0.000000 0.000000 0.000000 0.000000 
-0.141732 88.659454 2.976835 -0.165486 0.139496 -7.967709 -1.172821 0.257759 6.926776 1.491443 -0.254828 2.073129 -0.911228 1.903097 3.295401 1.177827 0.228526 2.342110 -2.769631 0.072739 3.332555 -0.411126 -1.035321 -3.922335 0.026905 0.665381 -18.548292 0.000000 0.000000 0.000000 90.754646 -0.145810 6.129391 69.156387 -19.656427 0.952038 0.163130 9.233624 26.957157 4.852741 25.390787 -8.325684 10.843782 -1.844002 39.805340 -0.000007 0.000035 -26.481600 -0.000005 0.000031 -18.364305 0.000013 -0.000001 -0.000020 13.088413 16.485962 -9.692558 10.471194 -0.640975 -2.802675 10.522112 0.312283 -2.624458 -0.000003 0.000029 -0.000024 14.062421 6.824275 -10.248075 10.407453 -0.842681 -1.122560 10.422312 0.111820 -0.958405 0.000019 -0.000037 -0.000000 19.013594 -8.777254 -10.473724 11.797230 1.755468 1.610062 11.710425 -0.156899 1.246371 -0.000036 -0.000012 -0.000001 23.856791 -24.867832 -12.345084 11.838303 3.305518 4.800711 11.617776 -0.505835 4.099182 0.000506 0.000008 0.000010 0.000000 0.000000 0.000000 0.000000 0.000000 0.000000 -91.176514 0.255653 8.705278 -68.282104 32.443752 -2.949826 -1.255338 -13.633711 36.257252 -4.620976 -12.590500 -14.546948 -10.416352 1.789805 39.987629 0.000009 0.000018 -25.355179 0.000038 -0.000014 -17.621508 -0.000634 0.000006 0.000216 -15.304298 16.628096 -10.214192 -8.747933 -0.683941 2.698079 -9.009837 0.264401 2.539521 0.000013 0.000728 0.000008 -12.441067 6.874060 -10.912059 -8.322971 -0.869170 1.038419 -8.055738 0.089888 0.891735 0.000022 -0.000033 -0.000088 -8.916986 -8.754441 -10.800672 -7.814847 1.806300 -1.454794 -7.646412 -0.110043 -1.110059 -0.000005 0.000016 0.000005 -3.832641 -24.877831 -13.210823 -6.447055 3.470755 -3.867520 -6.512019 -0.327587 -3.347409 -0.000036 0.000007 -0.000050 0.000000 0.000000 0.000000 0.000000 0.000000 0.000000 2.120880 5.158470 7.343496 -0.058626 -0.369917 8.730290 -5.088900 0.576967 17.879248 -0.323122 0.303213 -21.497353 0.000000 0.000000 0.000000 0.000000 0.000000 0.000000 0.000000 0.000000 0.000000 2.056011 9.763697 12.704122 0.045414 0.700065 4.644046 0.619415 8.298453 17.740608 0.753171 -0.770526 -19.491106 0.000000 0.000000 0.000000 0.000000 0.000000 0.000000 0.000000 0.000000 0.000000 
-0.156507 88.660789 2.956758 -0.187422 0.189803 -8.049499 -1.172351 0.252572 6.984843 1.500288 -0.252870 2.076076 -0.963754 1.892192 3.325505 1.216444 0.209695 2.313237 -2.823965 0.117809 3.413868 -0.403577 -0.987879 -3.819136 -0.009008 0.652493 -18.597498 0.000000 0.000000 0.000000 90.774658 -0.130227 6.107437 69.118652 -19.690247 1.091579 0.126237 9.314533 26.827408 4.912537 25.270111 -8.480917 10.814758 -1.840121 39.819363 -0.000005 0.000036 -26.415016 -0.000006 0.000033 -18.321537 0.000012 -0.000002 -0.000020 12.960468 16.497761 -9.570409 10.406497 -0.651741 -2.752157 10.461378 0.301948 -2.578342 -0.000002 0.000029 -0.000025 13.927532 6.827200 -10.130036 10.323431 -0.847194 -1.102661 10.334159 0.108071 -0.941075 0.000019 -0.000043 0.000002 18.900173 -8.778719 -10.394603 11.718943 1.761912 1.586678 11.628179 -0.151969 1.227428 -0.000035 0.000071 0.000001 23.812050 -24.862673 -12.338171 11.785957 3.323200 4.748097 11.555952 -0.493786 4.051143 0.000500 0.000008 0.000002 0.000000 0.000000 0.000000 0.000000 0.000000 0.000000 -91.121681 0.219039 8.777417 -68.480911 32.428078 -3.010662 -1.250862 -13.637971 36.258858 -4.421663 -12.447558 -14.443037 -10.428016 1.788446 39.983021 0.000008 0.000019 -25.383389 0.000032 -0.000014 -17.642729 -0.000674 0.000005 0.000220 -15.316799 16.634109 -10.141026 -8.764565 -0.689800 2.674845 -9.026865 0.259769 2.515030 0.000011 0.000650 0.000009 -12.459702 6.876067 -10.851841 -8.330046 -0.871539 1.026496 -8.058239 0.087777 0.882229 0.000075 -0.000034 -0.000112 -8.998038 -8.756821 -10.764658 -7.844250 1.810258 -1.442067 -7.672740 -0.107911 -1.100205 0.000018 0.000016 0.000005 -3.983168 -24.900789 -13.198541 -6.511722 3.479903 -3.835741 -6.565265 -0.321519 -3.320427 -0.000025 0.000006 -0.000050 0.000000 0.000000 0.000000 0.000000 0.000000 0.000000 2.117068 5.105149 7.375276 -0.056883 -0.361292 8.807774 -5.109496 0.631626 17.857492 -0.308219 0.306038 -21.458843 0.000000 0.000000 0.000000 0.000000 0.000000 0.000000 0.000000 0.000000 0.000000 2.066984 9.769481 12.818646 0.044338 0.698486 4.542576 0.608205 8.230758 17.754175 0.764660 -0.778280 -19.476583 0.000000 0.000000 0.000000 0.000000 0.000000 0.000000 0.000000 0.000000 0.000000 
-0.164340 88.666206 2.938594 -0.185126 0.238540 -8.119326 -1.175107 0.253102 7.024915 1.489196 -0.245989 2.078746 -0.990276 1.887209 3.347613 1.240196 0.203402 2.298920 -2.845812 0.164919 3.459280 -0.394331 -0.929869 -3.753987 -0.036753 0.650531 -18.674786 0.000000 0.000000 0.000000 90.769951 -0.109735 6.098893 69.149536 -19.665422 1.136254 0.099703 9.470948 26.796572 4.928903 25.230402 -8.554851 10.783504 -1.836653 39.833767 -0.000005 0.000036 -26.341051 -0.000007 0.000035 -18.271486 0.000012 -0.000002 -0.000019 12.812472 16.506441 -9.399860 10.329611 -0.660589 -2.704306 10.384561 0.293292 -2.535758 -0.000002 0.000028 -0.000026 13.773185 6.828951 -9.980978 10.230425 -0.851142 -1.083898 10.237414 0.104763 -0.924626 0.000020 -0.000045 0.000004 18.765598 -8.780510 -10.294685 11.627962 1.766880 1.564528 11.534828 -0.147944 1.209812 -0.000034 0.000161 0.000002 23.748396 -24.858711 -12.319498 11.717375 3.336580 4.699921 11.483657 -0.484428 4.008276 0.000504 0.000007 -0.000003 0.000000 0.000000 0.000000 0.000000 0.000000 0.000000 -91.050339 0.195731 8.809154 -68.666183 32.417088 -3.022992 -1.240342 -13.697632 36.268909 -4.161081 -12.303229 -14.307747 -10.437664 1.788784 39.977161 0.000007 0.000019 -25.409817 0.000029 -0.000015 -17.662704 -0.000665 0.000004 0.000196 -15.316709 16.629574 -10.052678 -8.784313 -0.694644 2.650658 -9.044788 0.255429 2.489537 0.000009 0.000582 0.000010 -12.476183 6.873033 -10.771757 -8.339849 -0.873426 1.014507 -8.063391 0.085748 0.872415 0.000097 -0.000034 -0.000126 -9.086767 -8.753168 -10.706790 -7.870647 1.813318 -1.428252 -7.695148 -0.105879 -1.089547 -0.000003 0.000016 0.000004 -4.135596 -24.905376 -13.164056 -6.563193 3.486545 -3.801961 -6.608148 -0.316379 -3.290983 -0.000030 0.000004 -0.000051 0.000000 0.000000 0.000000 0.000000 0.000000 0.000000 2.089401 5.056029 7.430770 -0.055418 -0.353222 8.866884 -5.118001 0.688361 17.817879 -0.299118 0.304606 -21.420460 0.000000 0.000000 0.000000 0.000000 0.000000 0.000000 0.000000 0.000000 0.000000 2.063705 9.794472 12.910195 0.042602 0.694493 4.484336 0.614974 8.207743 17.775644 0.773852 -0.780722 -19.462399 0.000000 0.000000 0.000000 0.000000 0.000000 0.000000 0.000000 0.000000 0.000000 
